<?xml version="1.0" standalone="no"?>
<!DOCTYPE svg PUBLIC "-//W3C//DTD SVG 20010904//EN"
 "http://www.w3.org/TR/2001/REC-SVG-20010904/DTD/svg10.dtd">
<svg version="1.0" xmlns="http://www.w3.org/2000/svg"
 width="191.000000pt" height="171.000000pt" viewBox="0 0 191.000000 171.000000"
 preserveAspectRatio="xMidYMid meet">

<g transform="translate(0.000000,171.000000) scale(0.100000,-0.100000)"
fill="#000000" stroke="none">
<path d="M0 855 l0 -855 955 0 955 0 0 855 0 855 -955 0 -955 0 0 -855z m1845
450 l0 -60 -87 -3 -88 -3 0 -559 0 -560 -70 0 -70 0 0 560 0 560 -155 0 -155
0 0 -560 0 -560 -67 0 -68 0 0 277 0 278 -240 3 c-197 2 -245 0 -271 -13 -18
-8 -42 -15 -54 -15 -29 0 -23 -14 48 -113 69 -96 203 -240 272 -293 27 -21 50
-41 50 -44 -1 -3 -20 -27 -44 -55 l-44 -49 -66 56 c-175 150 -342 362 -470
599 -36 67 -43 89 -34 96 15 12 94 53 102 53 3 0 15 -18 26 -39 27 -54 64 -81
112 -81 125 0 143 206 38 433 l-13 27 -194 0 -193 0 0 60 0 60 618 3 c339 1
730 2 867 2 l250 0 0 -60z"/>
<path d="M661 1193 c44 -103 63 -252 45 -350 l-8 -43 191 0 c189 0 191 0 196
23 3 12 4 110 3 217 l-3 195 -222 3 -222 2 20 -47z"/>
</g>
</svg>
