<svg version="1.1" id="Layer_1" xmlns="http://www.w3.org/2000/svg" xmlns:xlink="http://www.w3.org/1999/xlink" x="0px" y="0px"
	 width="100%" viewBox="0 0 191 171" enable-background="new 0 0 191 171" xml:space="preserve">
<path fill="#A1290B" opacity="1.000000" stroke="none" 
	d="
M192.000000,163.000000 
	C192.000000,164.066666 192.000000,165.133347 191.747940,166.592255 
	C191.327759,166.983582 191.159637,166.982666 190.523621,166.983734 
	C187.890228,166.991455 185.724716,167.002106 183.559219,167.002106 
	C129.587997,167.002335 75.616722,166.978195 21.645704,167.083054 
	C19.414360,167.087387 17.185362,168.298325 14.585870,168.876953 
	C12.477620,168.538071 10.738770,168.269333 8.834066,167.653702 
	C8.109614,164.417496 7.069153,161.529053 7.063902,158.638748 
	C6.968434,106.092636 6.997471,53.546295 7.000000,1.000000 
	C68.020897,1.000000 129.041794,1.000000 190.527756,1.468647 
	C190.991348,11.045619 190.924698,20.154730 191.034622,29.261711 
	C191.061768,31.511364 191.662796,33.754089 192.000000,36.000000 
	C192.000000,36.444447 192.000000,36.888889 191.773941,38.013088 
	C191.362900,40.826878 191.024246,42.960304 191.015747,45.095043 
	C190.862549,83.641975 190.741364,122.189041 190.684845,160.736206 
	C190.683746,161.490158 191.542435,162.245377 192.000000,163.000000 
M123.206902,136.500046 
	C123.206902,107.084534 123.206902,77.669022 123.206902,48.292782 
	C133.919296,48.292782 143.837158,48.292782 154.279663,48.292782 
	C154.279663,85.687935 154.279663,122.742149 154.279663,159.719757 
	C159.070984,159.719757 163.324554,159.719757 168.116577,159.719757 
	C168.116577,122.348854 168.116577,85.302551 168.116577,47.819031 
	C174.087387,47.819031 179.511780,47.819031 184.960876,47.819031 
	C184.960876,43.500740 184.960876,39.633911 184.960876,35.917458 
	C127.079620,35.917458 69.686195,35.917458 12.321936,35.917458 
	C12.321936,40.213554 12.321936,43.918148 12.321936,47.947857 
	C21.898478,47.947857 31.042736,47.947842 40.186996,47.947861 
	C51.319138,47.947887 51.235779,47.978519 55.199638,58.769569 
	C58.396240,67.471893 60.464462,76.237549 58.128777,85.519753 
	C57.087902,89.656265 54.951424,92.910439 50.565575,93.890617 
	C45.927574,94.927162 41.964020,93.519173 39.152237,89.615211 
	C37.424873,87.216888 35.980366,84.614853 34.267838,81.879021 
	C32.436089,82.831680 30.674253,83.713593 28.945625,84.656395 
	C27.112537,85.656151 25.310993,86.713745 23.196152,87.916412 
	C37.543579,117.062263 55.724171,142.344925 81.367813,162.140289 
	C84.569374,158.314636 87.285492,155.069077 90.071243,151.740280 
	C73.876793,139.405090 61.146187,124.785583 50.586010,107.745872 
	C70.343925,100.642563 89.945679,105.573639 109.736725,103.763702 
	C109.736725,123.029877 109.736725,141.283340 109.736725,159.727295 
	C114.432892,159.727295 118.656082,159.727295 123.206909,159.727295 
	C123.206909,152.111786 123.206909,144.805908 123.206902,136.500046 
z"/>
<path fill="#8A3620" opacity="1.000000" stroke="none" 
	d="
M190.991516,166.981735 
	C191.159637,166.982666 191.327759,166.983582 191.747940,166.992249 
	C192.000000,168.664413 192.000000,170.328842 192.000000,171.994934 
	C128.421494,171.996628 64.842987,171.996628 1.132240,171.996628 
	C1.132240,115.000267 1.132240,58.000137 1.132240,1.000000 
	C2.002733,1.000000 3.001367,1.000000 4.500323,1.468657 
	C5.000407,54.639526 4.999114,107.341736 5.004778,160.043945 
	C5.004957,161.704849 4.586238,163.609161 5.255164,164.957214 
	C5.905722,166.268265 7.705028,167.009293 8.999919,168.000610 
	C10.738770,168.269333 12.477620,168.538071 15.058990,168.892303 
	C72.167358,168.984207 128.433243,169.012375 184.698898,168.912003 
	C186.797577,168.908264 188.894028,167.653503 190.991516,166.981735 
z"/>
<path fill="#923118" opacity="1.000000" stroke="none" 
	d="
M8.834066,167.653702 
	C7.705028,167.009293 5.905722,166.268265 5.255164,164.957214 
	C4.586238,163.609161 5.004957,161.704849 5.004778,160.043945 
	C4.999114,107.341736 5.000407,54.639526 5.000322,1.468657 
	C5.444445,1.000000 5.888889,1.000000 6.666667,1.000000 
	C6.997471,53.546295 6.968434,106.092636 7.063902,158.638748 
	C7.069153,161.529053 8.109614,164.417496 8.834066,167.653702 
z"/>
<path fill="#923118" opacity="1.000000" stroke="none" 
	d="
M192.000000,162.531342 
	C191.542435,162.245377 190.683746,161.490158 190.684845,160.736206 
	C190.741364,122.189041 190.862549,83.641975 191.015747,45.095043 
	C191.024246,42.960304 191.362900,40.826878 191.773941,38.346420 
	C192.000000,79.354225 192.000000,120.708458 192.000000,162.531342 
z"/>
<path fill="#923118" opacity="1.000000" stroke="none" 
	d="
M192.000000,35.531342 
	C191.662796,33.754089 191.061768,31.511364 191.034622,29.261711 
	C190.924698,20.154730 190.991348,11.045619 190.996414,1.468646 
	C191.333344,1.818960 191.951691,2.636152 191.956787,3.457151 
	C192.022202,13.992012 192.000000,24.527416 192.000000,35.531342 
z"/>
<path fill="#F4EDE6" opacity="1.000000" stroke="none" 
	d="
M123.206909,137.000031 
	C123.206909,144.805908 123.206909,152.111786 123.206909,159.727295 
	C118.656082,159.727295 114.432892,159.727295 109.736725,159.727295 
	C109.736725,141.283340 109.736725,123.029877 109.736725,103.763702 
	C89.945679,105.573639 70.343925,100.642563 50.586010,107.745872 
	C61.146187,124.785583 73.876793,139.405090 90.071243,151.740280 
	C87.285492,155.069077 84.569374,158.314636 81.367813,162.140289 
	C55.724171,142.344925 37.543579,117.062263 23.196152,87.916412 
	C25.310993,86.713745 27.112537,85.656151 28.945625,84.656395 
	C30.674253,83.713593 32.436089,82.831680 34.267838,81.879021 
	C35.980366,84.614853 37.424873,87.216888 39.152237,89.615211 
	C41.964020,93.519173 45.927574,94.927162 50.565575,93.890617 
	C54.951424,92.910439 57.087902,89.656265 58.128777,85.519753 
	C60.464462,76.237549 58.396240,67.471893 55.199638,58.769569 
	C51.235779,47.978519 51.319138,47.947887 40.186996,47.947861 
	C31.042736,47.947842 21.898478,47.947857 12.321936,47.947857 
	C12.321936,43.918148 12.321936,40.213554 12.321936,35.917458 
	C69.686195,35.917458 127.079620,35.917458 184.960876,35.917458 
	C184.960876,39.633911 184.960876,43.500740 184.960876,47.819031 
	C179.511780,47.819031 174.087387,47.819031 168.116577,47.819031 
	C168.116577,85.302551 168.116577,122.348854 168.116577,159.719757 
	C163.324554,159.719757 159.070984,159.719757 154.279663,159.719757 
	C154.279663,122.742149 154.279663,85.687935 154.279663,48.292782 
	C143.837158,48.292782 133.919296,48.292782 123.206902,48.292782 
	C123.206902,77.669022 123.206902,107.084534 123.206909,137.000031 
M72.089821,73.681053 
	C72.089821,79.584297 72.089821,85.487541 72.089821,91.478226 
	C83.832573,91.478226 96.529449,91.478226 109.405609,91.478226 
	C109.405609,76.843033 109.405609,62.613659 109.405609,48.160423 
	C94.671783,48.160423 80.252480,48.160423 66.310638,48.160423 
	C68.232552,56.394428 70.140160,64.567123 72.089821,73.681053 
z"/>
<path fill="#923118" opacity="1.000000" stroke="none" 
	d="
M190.523621,166.983734 
	C188.894028,167.653503 186.797577,168.908264 184.698898,168.912003 
	C128.433243,169.012375 72.167358,168.984207 15.428390,168.962463 
	C17.185362,168.298325 19.414360,167.087387 21.645704,167.083054 
	C75.616722,166.978195 129.587997,167.002335 183.559219,167.002106 
	C185.724716,167.002106 187.890228,166.991455 190.523621,166.983734 
z"/>
<path fill="#A02C0E" opacity="1.000000" stroke="none" 
	d="
M72.068794,73.210434 
	C70.140160,64.567123 68.232552,56.394428 66.310638,48.160423 
	C80.252480,48.160423 94.671783,48.160423 109.405609,48.160423 
	C109.405609,62.613659 109.405609,76.843033 109.405609,91.478226 
	C96.529449,91.478226 83.832573,91.478226 72.089821,91.478226 
	C72.089821,85.487541 72.089821,79.584297 72.068794,73.210434 
z"/>
</svg>